<?xml version="1.0" encoding="UTF-8"?>
<svg version="1.2" baseProfile="tiny-ps" viewBox="0 0 83.62 83.72" xmlns="http://www.w3.org/2000/svg" xmlns:xlink="http://www.w3.org/1999/xlink">
<title>Ikonetics</title><desc>App development team logo</desc>
<defs>
<style>.cls-1{fill:none;stroke:#fff;stroke-width:14px;}.cls-1,.cls-3,.cls-4,.cls-6{stroke-miterlimit:10;}.cls-2,.cls-3,.cls-4,.cls-6{fill:#fff;}.cls-3,.cls-4,.cls-6{stroke-width:8px;}.cls-3{stroke:url(#a);}.cls-4{stroke:url(#d);}.cls-5{fill:url(#c);}.cls-6{stroke:url(#b);}</style>
<linearGradient id="a" x1="31.78" x2="13.54" y1="39.77" y2="71.36" gradientUnits="userSpaceOnUse">
<stop stop-color="#c42e9d" offset="0"/>
<stop stop-color="#a72ea3" offset=".12"/>
<stop stop-color="#822eac" offset=".3"/>
<stop stop-color="#652fb3" offset=".48"/>
<stop stop-color="#512fb7" offset=".66"/>
<stop stop-color="#442fba" offset=".83"/>
<stop stop-color="#402fbb" offset="1"/>
</linearGradient>
<linearGradient id="d" x1="41.26" x2="69.13" y1="50.6" y2="78.47" xlink:href="#a"/>
<linearGradient id="c" x1="50.59" x2="78.47" y1="46.73" y2="18.86" xlink:href="#a"/>
<linearGradient id="b" x1="31.2" x2="31.2" y1="41.55" y2="5.17" xlink:href="#a"/>
</defs>
<g data-name="clover bg">
<path class="cls-1" transform="translate(-2.17 -2.12)" d="M36.63,48.19S25.2,45,21.37,44.06c-2.41-.6-7.72-1.51-9.29,4.13-.61,2.2-2,7.44-2.65,9.94a7,7,0,0,0,3.76,8.37c2.52,1.16,8,2.47,10.61,3.23a6.53,6.53,0,0,0,8-4C33,61.34,36.63,48.19,36.63,48.19Z"/>
<path class="cls-1" transform="translate(-2.17 -2.12)" d="M48.19,51.37S45,62.8,44.06,66.63c-.6,2.41-1.51,7.72,4.13,9.29,2.2.61,7.44,2,9.94,2.65a7,7,0,0,0,8.37-3.76c1.16-2.52,2.47-8,3.23-10.61a6.53,6.53,0,0,0-4-8C61.34,55,48.19,51.37,48.19,51.37Z"/>
<path class="cls-2" transform="translate(-2.17 -2.12)" d="M69.61,51.32a19.54,19.54,0,0,1-4.74-.6c-3.87-1-15-4-15.43-4.17l-6.73-1.86L44.56,38c.15-.54,3.65-13.23,4.89-17.58a12.89,12.89,0,0,1,6.21-7.62,13.53,13.53,0,0,1,10.41-1.21l2.17.59a64.91,64.91,0,0,1,9.45,3C84,18,87,24.64,85.31,31.56c-.63,2.55-2.07,7.86-2.7,10.12C80.61,48.86,75.06,51.32,69.61,51.32ZM59.93,34.91c3.15.87,6.6,1.8,8.35,2.24.42.1.75.16,1,.2.67-2.42,1.89-6.94,2.45-9.17a1.85,1.85,0,0,0,0-.34,68.67,68.67,0,0,0-7.18-2.19l-1.95-.53C62,27.54,60.87,31.48,59.93,34.91Z"/>
<path class="cls-1" transform="translate(-2.17 -2.12)" d="M39.86,36.58S43,25.15,44,21.32c.61-2.41,1.52-7.72-4.13-9.29-2.19-.61-7.43-2-9.93-2.65a7,7,0,0,0-8.37,3.76c-1.16,2.52-2.47,8-3.24,10.61a6.55,6.55,0,0,0,4,8C26.71,33,39.86,36.58,39.86,36.58Z"/>
</g>
<path class="cls-3" transform="translate(-2.17 -2.12)" d="M36.63,48.19S25.2,45,21.37,44.06c-2.41-.6-7.72-1.51-9.29,4.13-.61,2.2-2,7.44-2.65,9.94a7,7,0,0,0,3.76,8.37c2.52,1.16,8,2.47,10.61,3.23a6.53,6.53,0,0,0,8-4C33,61.34,36.63,48.19,36.63,48.19Z" data-name="botleft"/>
<path class="cls-4" transform="translate(-2.17 -2.12)" d="M48.19,51.37S45,62.8,44.06,66.63c-.6,2.41-1.51,7.72,4.13,9.29,2.2.61,7.44,2,9.94,2.65a7,7,0,0,0,8.37-3.76c1.16-2.52,2.47-8,3.23-10.61a6.53,6.53,0,0,0-4-8C61.34,55,48.19,51.37,48.19,51.37Z" data-name="botright"/>
<g data-name="topright">
<path class="cls-2" transform="translate(-2.17 -2.12)" d="M51.37,39.81S62.8,43,66.63,43.94c2.41.6,7.72,1.51,9.29-4.13.61-2.2,2-7.44,2.65-9.94a7,7,0,0,0-3.76-8.37c-2.52-1.16-8-2.47-10.61-3.23a6.53,6.53,0,0,0-8,4C55,26.66,51.37,39.81,51.37,39.81Z"/>
<path class="cls-5" transform="translate(-2.17 -2.12)" d="M69.92,48.39a18,18,0,0,1-4.27-.57c-3.83-1-14.88-4-15.35-4.16l-3.85-1.07,1.06-3.85c0-.13,3.64-13.21,4.88-17.55a9.88,9.88,0,0,1,4.79-5.82,10.57,10.57,0,0,1,8.12-.95c.61.18,1.37.38,2.21.61a65.84,65.84,0,0,1,9,2.84,10.94,10.94,0,0,1,6,13c-.62,2.52-2,7.79-2.68,10A9.82,9.82,0,0,1,69.92,48.39ZM56.29,37c3.67,1,9,2.46,11.31,3.05,3.83,1,4.17-.26,4.46-1.33.62-2.2,2-7.38,2.63-9.82a3,3,0,0,0-1.55-3.78,66.54,66.54,0,0,0-7.71-2.38c-.88-.24-1.69-.45-2.34-.64a2.7,2.7,0,0,0-2,.25,2.08,2.08,0,0,0-1,1C59.28,26.2,57.46,32.78,56.29,37Z"/>
</g>
<path class="cls-6" transform="translate(-2.17 -2.12)" d="M39.81,36.63S43,25.2,43.94,21.37c.6-2.41,1.51-7.72-4.13-9.29-2.2-.61-7.44-2-9.94-2.65a7,7,0,0,0-8.37,3.76c-1.16,2.52-2.47,8-3.23,10.61a6.53,6.53,0,0,0,4,8C26.66,33,39.81,36.63,39.81,36.63Z" data-name="topleft"/>
</svg>
