<?xml version="1.0" standalone="no"?>
<!DOCTYPE svg PUBLIC "-//W3C//DTD SVG 20010904//EN"
 "http://www.w3.org/TR/2001/REC-SVG-20010904/DTD/svg10.dtd">
<svg version="1.0" xmlns="http://www.w3.org/2000/svg"
 width="512.000000pt" height="512.000000pt" viewBox="0 0 512.000000 512.000000"
 preserveAspectRatio="xMidYMid meet">
<metadata>
Created by potrace 1.11, written by Peter Selinger 2001-2013
</metadata>
<g transform="translate(0.000000,512.000000) scale(0.100000,-0.100000)"
fill="#000000" stroke="none">
<path d="M1495 4993 c-196 -31 -391 -142 -507 -291 -105 -132 -154 -255 -270
-672 l-72 -255 0 -140 c0 -153 12 -217 64 -331 42 -93 96 -171 172 -246 l68
-67 -58 -11 c-161 -31 -305 -111 -412 -228 -96 -104 -146 -218 -224 -507 -126
-464 -130 -485 -129 -630 0 -202 51 -354 168 -504 144 -183 291 -256 801 -397
212 -59 252 -67 353 -71 70 -4 141 -1 185 7 160 28 318 113 433 233 l62 64 11
-56 c31 -160 111 -304 228 -411 104 -96 218 -146 507 -224 464 -126 485 -130
630 -129 202 0 354 51 504 168 183 144 256 291 397 801 59 212 67 252 71 353
4 70 1 141 -7 185 -28 161 -113 318 -234 435 -37 35 -66 64 -64 65 2 1 41 9
88 19 230 45 424 209 515 434 13 32 48 148 79 258 140 514 156 598 136 756
-34 281 -189 503 -440 629 -99 50 -234 95 -525 176 -225 63 -248 67 -367 72
-96 3 -145 0 -205 -13 -149 -32 -336 -139 -421 -241 l-36 -44 -23 91 c-55 226
-188 389 -398 490 -76 37 -224 81 -625 186 -155 40 -189 46 -300 48 -69 2
-138 1 -155 -2z"/>
</g>
</svg>
